<svg width="22" height="21" viewBox="0 0 22 21" fill="none" xmlns="http://www.w3.org/2000/svg">
<path d="M0.698888 0.0376129C0.452359 0.0911617 0.23178 0.264166 0.110678 0.494838C-0.0796252 0.861442 -0.0233992 1.21569 0.270706 1.49579C0.534535 1.74294 0.664288 1.76765 1.74988 1.76765C2.77492 1.76765 2.90468 1.79237 3.0647 2.01068C3.10795 2.06835 3.85619 4.15676 4.72986 6.64884C6.57666 11.9378 6.44259 11.3694 6.13551 12.5269C5.8587 13.5731 5.8933 14.0839 6.29121 14.7224C6.59396 15.2084 7.2384 15.6615 7.79201 15.7686C7.95204 15.8016 9.77722 15.8098 13.8644 15.8057L19.7076 15.7933L19.8763 15.6821C19.9671 15.6203 20.0925 15.5009 20.1531 15.4144C20.2439 15.2867 20.2612 15.2167 20.2612 14.9489C20.2612 14.6729 20.2482 14.6153 20.1444 14.4711C20.0795 14.3846 19.9541 14.2651 19.8633 14.2075L19.7033 14.1045L13.9077 14.0839C7.60171 14.0633 8.00394 14.0798 7.85256 13.8326C7.75741 13.6802 7.76606 13.5731 7.89581 13.0829C8.02124 12.6092 8.07314 12.5063 8.27209 12.3951C8.40617 12.3168 8.5316 12.3127 13.4881 12.3127C17.3807 12.3127 18.6047 12.3003 18.7431 12.2632C18.8426 12.2344 18.9983 12.1397 19.0978 12.0408C19.2751 11.876 19.2924 11.8225 20.5596 8.21C21.2646 6.19574 21.8399 4.49453 21.8399 4.42862C21.8399 4.09909 21.6063 3.74896 21.3035 3.61715C21.1349 3.54301 20.8278 3.53889 13.579 3.53889C8.59215 3.53889 5.9798 3.52241 5.87168 3.49769C5.5646 3.41531 5.4954 3.28762 4.98936 1.82944C4.56983 0.63077 4.50063 0.461884 4.35358 0.301238C4.08542 0.00877857 3.99027 -0.00357914 2.29484 0.000540733C1.4947 0.00465965 0.776739 0.0211363 0.698888 0.0376129Z" fill="#00AB63"/>
<path d="M6.78874 16.8025C6.0751 17.0538 5.60799 17.6264 5.54744 18.3307C5.45662 19.377 6.42111 20.2956 7.51968 20.2091C8.28089 20.1473 8.91235 19.6653 9.14158 18.9651C9.26268 18.6026 9.22376 18.0959 9.05075 17.7417C8.86045 17.3586 8.57932 17.0826 8.18141 16.8973C7.88731 16.7572 7.82243 16.7407 7.44182 16.7325C7.10879 16.7202 6.97904 16.7366 6.78874 16.8025Z" fill="#00AB63"/>
<path d="M17.8608 16.8025C17.1471 17.0538 16.68 17.6264 16.6195 18.3307C16.5286 19.377 17.4931 20.2956 18.5917 20.2091C19.3529 20.1473 19.9844 19.6653 20.2136 18.9651C20.3347 18.6026 20.2958 18.0959 20.1228 17.7417C19.9325 17.3586 19.6513 17.0826 19.2534 16.8973C18.9593 16.7572 18.8945 16.7407 18.5138 16.7325C18.1808 16.7202 18.0511 16.7366 17.8608 16.8025Z" fill="#00AB63"/>
</svg>
