<svg width="124" height="40" viewBox="0 0 124 40" fill="none" xmlns="http://www.w3.org/2000/svg">
<g filter="url(#filter0_i_0_1084)">
<path d="M59.44 21L59.232 19.432C58.816 20.424 57.36 21.192 55.744 21.192C52.256 21.192 50.8 18.792 50.8 15.352C50.8 11.432 52.848 9.208 56.224 9.208C58.656 9.208 60.304 10.28 60.512 13.064L59.104 13.208C58.912 11.336 57.984 10.488 56.176 10.488C53.728 10.488 52.32 12.216 52.32 15.224C52.32 18.808 53.888 19.944 56.032 19.944C58.112 19.944 59.12 18.536 59.12 17.176V16.184H56.048V14.984H60.512V21H59.44ZM66.7893 15.8V19.72H72.2933V21H65.3173V9.416H72.0853V10.696H66.7893V14.52H71.7653V15.8H66.7893ZM87.8004 9.416V21H86.4084V11H86.3924L82.8884 21H81.3524L77.9124 10.984H77.8804V21H76.5204V9.416H78.7604L82.1684 19.272H82.1844L85.5924 9.416H87.8004ZM94.3518 9.416V19.704H99.5677V21H92.8798V9.416H94.3518ZM106.652 9.416H108.572L112.604 21H110.988L109.82 17.56H105.372L104.236 21H102.748L106.652 9.416ZM109.452 16.296L107.596 10.76H107.58L105.724 16.296H109.452ZM119.438 16.488V21H117.966V16.52L114.014 9.416H115.678L118.718 15.064H118.75L121.71 9.416H123.23L119.438 16.488Z" fill="#555555"/>
</g>
<g filter="url(#filter1_i_0_1084)">
<path d="M55.44 25.6267H56.49C56.6533 25.6267 56.8083 25.6434 56.955 25.6767C57.105 25.7067 57.2367 25.7601 57.35 25.8367C57.4667 25.9101 57.5583 26.0101 57.625 26.1367C57.695 26.2601 57.73 26.4134 57.73 26.5967C57.73 26.7901 57.6933 26.9501 57.62 27.0767C57.5467 27.2034 57.4517 27.3034 57.335 27.3767C57.2217 27.4501 57.0967 27.5017 56.96 27.5317C56.8233 27.5617 56.6933 27.5767 56.57 27.5767H55.86V29.1667H55.44V25.6267ZM55.86 27.1867H56.57C56.78 27.1867 56.95 27.1401 57.08 27.0467C57.2133 26.9501 57.28 26.8017 57.28 26.6017C57.28 26.4017 57.2133 26.2551 57.08 26.1617C56.95 26.0651 56.78 26.0167 56.57 26.0167H55.86V27.1867ZM60.8739 28.6117C60.8739 28.7184 60.8772 28.8184 60.8839 28.9117C60.8905 29.0051 60.8939 29.0901 60.8939 29.1667H60.5239C60.5239 29.1034 60.5222 29.0401 60.5189 28.9767C60.5155 28.9134 60.5139 28.8484 60.5139 28.7817H60.5039C60.4772 28.8384 60.4389 28.8934 60.3889 28.9467C60.3422 29.0001 60.2855 29.0484 60.2189 29.0917C60.1522 29.1317 60.0772 29.1634 59.9939 29.1867C59.9105 29.2134 59.8205 29.2267 59.7239 29.2267C59.5705 29.2267 59.4372 29.2034 59.3239 29.1567C59.2139 29.1101 59.1222 29.0451 59.0489 28.9617C58.9755 28.8784 58.9205 28.7784 58.8839 28.6617C58.8505 28.5417 58.8339 28.4117 58.8339 28.2717V26.8267H59.2239V28.2317C59.2239 28.4284 59.2672 28.5834 59.3539 28.6967C59.4405 28.8101 59.5755 28.8667 59.7589 28.8667C59.8855 28.8667 59.9939 28.8451 60.0839 28.8017C60.1772 28.7584 60.2522 28.6967 60.3089 28.6167C60.3689 28.5367 60.4122 28.4417 60.4389 28.3317C60.4689 28.2217 60.4839 28.1001 60.4839 27.9667V26.8267H60.8739V28.6117ZM62.1122 27.3817C62.1122 27.2751 62.1089 27.1751 62.1022 27.0817C62.0955 26.9884 62.0922 26.9034 62.0922 26.8267H62.4622C62.4622 26.8901 62.4639 26.9534 62.4672 27.0167C62.4705 27.0801 62.4722 27.1451 62.4722 27.2117H62.4822C62.5089 27.1551 62.5455 27.1001 62.5922 27.0467C62.6422 26.9934 62.7005 26.9467 62.7672 26.9067C62.8339 26.8634 62.9089 26.8301 62.9922 26.8067C63.0755 26.7801 63.1655 26.7667 63.2622 26.7667C63.2889 26.7667 63.3155 26.7684 63.3422 26.7717C63.3689 26.7751 63.3955 26.7817 63.4222 26.7917L63.3972 27.1867C63.3305 27.1667 63.2605 27.1567 63.1872 27.1567C62.9472 27.1567 62.7722 27.2351 62.6622 27.3917C62.5555 27.5451 62.5022 27.7567 62.5022 28.0267V29.1667H62.1122V27.3817ZM66.3721 28.7417C66.2321 28.9217 66.0788 29.0484 65.9121 29.1217C65.7454 29.1917 65.5521 29.2267 65.3321 29.2267C65.1488 29.2267 64.9838 29.1951 64.8371 29.1317C64.6904 29.0651 64.5654 28.9767 64.4621 28.8667C64.3621 28.7567 64.2838 28.6267 64.2271 28.4767C64.1738 28.3267 64.1471 28.1667 64.1471 27.9967C64.1471 27.8167 64.1771 27.6517 64.2371 27.5017C64.2971 27.3484 64.3804 27.2184 64.4871 27.1117C64.5938 27.0017 64.7204 26.9167 64.8671 26.8567C65.0138 26.7967 65.1738 26.7667 65.3471 26.7667C65.5104 26.7667 65.6604 26.7951 65.7971 26.8517C65.9338 26.9051 66.0504 26.9851 66.1471 27.0917C66.2471 27.1951 66.3238 27.3234 66.3771 27.4767C66.4304 27.6267 66.4571 27.7984 66.4571 27.9917V28.1167H64.5671C64.5738 28.2167 64.5971 28.3134 64.6371 28.4067C64.6804 28.4967 64.7354 28.5767 64.8021 28.6467C64.8688 28.7134 64.9471 28.7667 65.0371 28.8067C65.1271 28.8467 65.2254 28.8667 65.3321 28.8667C65.5021 28.8667 65.6454 28.8367 65.7621 28.7767C65.8788 28.7167 65.9838 28.6284 66.0771 28.5117L66.3721 28.7417ZM66.0371 27.7867C66.0304 27.5867 65.9654 27.4267 65.8421 27.3067C65.7188 27.1867 65.5488 27.1267 65.3321 27.1267C65.1154 27.1267 64.9404 27.1867 64.8071 27.3067C64.6738 27.4267 64.5938 27.5867 64.5671 27.7867H66.0371ZM69.457 25.6267H70.817C70.9337 25.6267 71.057 25.6401 71.187 25.6667C71.317 25.6934 71.4454 25.7367 71.572 25.7967C71.702 25.8534 71.8254 25.9284 71.942 26.0217C72.062 26.1151 72.167 26.2284 72.257 26.3617C72.347 26.4917 72.4187 26.6434 72.472 26.8167C72.5254 26.9867 72.552 27.1801 72.552 27.3967C72.552 27.6134 72.5254 27.8084 72.472 27.9817C72.4187 28.1517 72.347 28.3034 72.257 28.4367C72.167 28.5667 72.062 28.6784 71.942 28.7717C71.8254 28.8651 71.702 28.9417 71.572 29.0017C71.4454 29.0584 71.317 29.1001 71.187 29.1267C71.057 29.1534 70.9337 29.1667 70.817 29.1667H69.457V25.6267ZM69.877 28.7767H70.677C70.8804 28.7767 71.0687 28.7501 71.242 28.6967C71.4154 28.6434 71.5654 28.5617 71.692 28.4517C71.8187 28.3384 71.9187 28.1951 71.992 28.0217C72.0654 27.8484 72.102 27.6401 72.102 27.3967C72.102 27.1534 72.0654 26.9451 71.992 26.7717C71.9187 26.5984 71.8187 26.4567 71.692 26.3467C71.5654 26.2334 71.4154 26.1501 71.242 26.0967C71.0687 26.0434 70.8804 26.0167 70.677 26.0167H69.877V28.7767ZM73.6931 26.8267H74.0831V29.1667H73.6931V26.8267ZM73.6031 25.9117C73.6031 25.8351 73.6298 25.7684 73.6831 25.7117C73.7398 25.6551 73.8081 25.6267 73.8881 25.6267C73.9681 25.6267 74.0348 25.6551 74.0881 25.7117C74.1448 25.7684 74.1731 25.8351 74.1731 25.9117C74.1731 25.9951 74.1464 26.0634 74.0931 26.1167C74.0398 26.1701 73.9714 26.1967 73.8881 26.1967C73.8048 26.1967 73.7364 26.1701 73.6831 26.1167C73.6298 26.0634 73.6031 25.9951 73.6031 25.9117ZM75.3293 27.1267C75.4493 27.0034 75.5909 26.9134 75.7543 26.8567C75.9209 26.7967 76.0893 26.7667 76.2593 26.7667C76.6059 26.7667 76.8559 26.8484 77.0093 27.0117C77.1626 27.1751 77.2393 27.4234 77.2393 27.7567V28.7617C77.2393 28.8284 77.2426 28.8984 77.2493 28.9717C77.2559 29.0417 77.2643 29.1067 77.2743 29.1667H76.8993C76.8859 29.1134 76.8776 29.0551 76.8743 28.9917C76.8743 28.9251 76.8743 28.8667 76.8743 28.8167H76.8643C76.7876 28.9367 76.6843 29.0351 76.5543 29.1117C76.4276 29.1884 76.2743 29.2267 76.0943 29.2267C75.9743 29.2267 75.8609 29.2117 75.7543 29.1817C75.6509 29.1517 75.5593 29.1084 75.4793 29.0517C75.4026 28.9917 75.3409 28.9184 75.2943 28.8317C75.2476 28.7451 75.2243 28.6451 75.2243 28.5317C75.2243 28.3384 75.2743 28.1867 75.3743 28.0767C75.4743 27.9667 75.5976 27.8851 75.7443 27.8317C75.8943 27.7784 76.0543 27.7451 76.2243 27.7317C76.3976 27.7184 76.5559 27.7117 76.6993 27.7117H76.8493V27.6417C76.8493 27.4717 76.7976 27.3434 76.6943 27.2567C76.5943 27.1701 76.4526 27.1267 76.2693 27.1267C76.1426 27.1267 76.0176 27.1484 75.8943 27.1917C75.7743 27.2317 75.6676 27.2951 75.5743 27.3817L75.3293 27.1267ZM76.4593 28.0417C76.2093 28.0417 76.0109 28.0767 75.8643 28.1467C75.7176 28.2167 75.6443 28.3317 75.6443 28.4917C75.6443 28.6384 75.6926 28.7434 75.7893 28.8067C75.8893 28.8667 76.0126 28.8967 76.1593 28.8967C76.2726 28.8967 76.3709 28.8784 76.4543 28.8417C76.5409 28.8017 76.6126 28.7501 76.6693 28.6867C76.7259 28.6234 76.7693 28.5501 76.7993 28.4667C76.8293 28.3801 76.8459 28.2884 76.8493 28.1917V28.0417H76.4593ZM78.452 27.3817C78.452 27.2751 78.4487 27.1751 78.442 27.0817C78.4354 26.9884 78.432 26.9034 78.432 26.8267H78.802C78.802 26.8901 78.8037 26.9534 78.807 27.0167C78.8104 27.0801 78.812 27.1451 78.812 27.2117H78.822C78.8487 27.1551 78.8854 27.1001 78.932 27.0467C78.982 26.9934 79.0404 26.9467 79.107 26.9067C79.1737 26.8634 79.2487 26.8301 79.332 26.8067C79.4154 26.7801 79.5054 26.7667 79.602 26.7667C79.7287 26.7667 79.8337 26.7834 79.917 26.8167C80.0037 26.8467 80.0754 26.8851 80.132 26.9317C80.1887 26.9751 80.232 27.0234 80.262 27.0767C80.2954 27.1267 80.322 27.1717 80.342 27.2117C80.4287 27.0717 80.5287 26.9634 80.642 26.8867C80.7554 26.8067 80.902 26.7667 81.082 26.7667C81.2487 26.7667 81.3887 26.7901 81.502 26.8367C81.6154 26.8801 81.707 26.9451 81.777 27.0317C81.847 27.1151 81.897 27.2184 81.927 27.3417C81.957 27.4617 81.972 27.5967 81.972 27.7467V29.1667H81.582V27.7667C81.582 27.6867 81.5737 27.6084 81.557 27.5317C81.5404 27.4551 81.5104 27.3867 81.467 27.3267C81.4237 27.2667 81.3654 27.2184 81.292 27.1817C81.2187 27.1451 81.1254 27.1267 81.012 27.1267C80.9287 27.1267 80.8504 27.1434 80.777 27.1767C80.7037 27.2101 80.6387 27.2567 80.582 27.3167C80.5287 27.3767 80.4854 27.4501 80.452 27.5367C80.422 27.6201 80.407 27.7134 80.407 27.8167V29.1667H80.017V27.8417C80.017 27.5817 79.982 27.3984 79.912 27.2917C79.842 27.1817 79.727 27.1267 79.567 27.1267C79.4404 27.1267 79.3304 27.1484 79.237 27.1917C79.147 27.2351 79.072 27.2967 79.012 27.3767C78.9554 27.4567 78.912 27.5517 78.882 27.6617C78.8554 27.7717 78.842 27.8934 78.842 28.0267V29.1667H78.452V27.3817ZM83.0748 27.9967C83.0748 27.8134 83.1065 27.6467 83.1698 27.4967C83.2332 27.3467 83.3198 27.2184 83.4298 27.1117C83.5398 27.0017 83.6715 26.9167 83.8248 26.8567C83.9782 26.7967 84.1448 26.7667 84.3248 26.7667C84.5048 26.7667 84.6715 26.7967 84.8248 26.8567C84.9782 26.9167 85.1098 27.0017 85.2198 27.1117C85.3298 27.2184 85.4165 27.3467 85.4798 27.4967C85.5432 27.6467 85.5748 27.8134 85.5748 27.9967C85.5748 28.1801 85.5432 28.3467 85.4798 28.4967C85.4165 28.6467 85.3298 28.7767 85.2198 28.8867C85.1098 28.9934 84.9782 29.0767 84.8248 29.1367C84.6715 29.1967 84.5048 29.2267 84.3248 29.2267C84.1448 29.2267 83.9782 29.1967 83.8248 29.1367C83.6715 29.0767 83.5398 28.9934 83.4298 28.8867C83.3198 28.7767 83.2332 28.6467 83.1698 28.4967C83.1065 28.3467 83.0748 28.1801 83.0748 27.9967ZM83.4948 27.9967C83.4948 28.1201 83.5132 28.2351 83.5498 28.3417C83.5898 28.4451 83.6465 28.5367 83.7198 28.6167C83.7932 28.6934 83.8798 28.7551 83.9798 28.8017C84.0832 28.8451 84.1982 28.8667 84.3248 28.8667C84.4515 28.8667 84.5648 28.8451 84.6648 28.8017C84.7682 28.7551 84.8565 28.6934 84.9298 28.6167C85.0032 28.5367 85.0582 28.4451 85.0948 28.3417C85.1348 28.2351 85.1548 28.1201 85.1548 27.9967C85.1548 27.8734 85.1348 27.7601 85.0948 27.6567C85.0582 27.5501 85.0032 27.4584 84.9298 27.3817C84.8565 27.3017 84.7682 27.2401 84.6648 27.1967C84.5648 27.1501 84.4515 27.1267 84.3248 27.1267C84.1982 27.1267 84.0832 27.1501 83.9798 27.1967C83.8798 27.2401 83.7932 27.3017 83.7198 27.3817C83.6465 27.4584 83.5898 27.5501 83.5498 27.6567C83.5132 27.7601 83.4948 27.8734 83.4948 27.9967ZM86.6786 27.3817C86.6786 27.2751 86.6753 27.1751 86.6686 27.0817C86.6619 26.9884 86.6586 26.9034 86.6586 26.8267H87.0286C87.0286 26.8901 87.0303 26.9534 87.0336 27.0167C87.0369 27.0801 87.0386 27.1451 87.0386 27.2117H87.0486C87.0753 27.1551 87.1119 27.1001 87.1586 27.0467C87.2086 26.9934 87.2669 26.9467 87.3336 26.9067C87.4003 26.8634 87.4753 26.8301 87.5586 26.8067C87.6419 26.7801 87.7319 26.7667 87.8286 26.7667C87.9819 26.7667 88.1136 26.7901 88.2236 26.8367C88.3369 26.8834 88.4303 26.9484 88.5036 27.0317C88.5769 27.1151 88.6303 27.2167 88.6636 27.3367C88.7003 27.4534 88.7186 27.5817 88.7186 27.7217V29.1667H88.3286V27.7617C88.3286 27.5651 88.2853 27.4101 88.1986 27.2967C88.1119 27.1834 87.9769 27.1267 87.7936 27.1267C87.6669 27.1267 87.5569 27.1484 87.4636 27.1917C87.3736 27.2351 87.2986 27.2967 87.2386 27.3767C87.1819 27.4567 87.1386 27.5517 87.1086 27.6617C87.0819 27.7717 87.0686 27.8934 87.0686 28.0267V29.1667H86.6786V27.3817ZM91.9019 28.7517H91.8919C91.8186 28.8851 91.7019 28.9984 91.5419 29.0917C91.3852 29.1817 91.2019 29.2267 90.9919 29.2267C90.8286 29.2267 90.6752 29.1967 90.5319 29.1367C90.3886 29.0734 90.2636 28.9867 90.1569 28.8767C90.0536 28.7667 89.9719 28.6367 89.9119 28.4867C89.8519 28.3367 89.8219 28.1734 89.8219 27.9967C89.8219 27.8201 89.8519 27.6567 89.9119 27.5067C89.9719 27.3567 90.0552 27.2267 90.1619 27.1167C90.2686 27.0067 90.3969 26.9217 90.5469 26.8617C90.7002 26.7984 90.8686 26.7667 91.0519 26.7667C91.2219 26.7667 91.3769 26.8017 91.5169 26.8717C91.6602 26.9417 91.7852 27.0401 91.8919 27.1667H91.9019V25.3867H92.2919V29.1667H91.9019V28.7517ZM91.9019 27.9967C91.9019 27.8734 91.8819 27.7601 91.8419 27.6567C91.8052 27.5501 91.7502 27.4584 91.6769 27.3817C91.6036 27.3017 91.5152 27.2401 91.4119 27.1967C91.3119 27.1501 91.1986 27.1267 91.0719 27.1267C90.9452 27.1267 90.8302 27.1501 90.7269 27.1967C90.6269 27.2401 90.5402 27.3017 90.4669 27.3817C90.3936 27.4584 90.3369 27.5501 90.2969 27.6567C90.2602 27.7601 90.2419 27.8734 90.2419 27.9967C90.2419 28.1201 90.2602 28.2351 90.2969 28.3417C90.3369 28.4451 90.3936 28.5367 90.4669 28.6167C90.5402 28.6934 90.6269 28.7551 90.7269 28.8017C90.8302 28.8451 90.9452 28.8667 91.0719 28.8667C91.1986 28.8667 91.3119 28.8451 91.4119 28.8017C91.5152 28.7551 91.6036 28.6934 91.6769 28.6167C91.7502 28.5367 91.8052 28.4451 91.8419 28.3417C91.8819 28.2351 91.9019 28.1201 91.9019 27.9967ZM95.4752 25.6267H97.7002V26.0167H95.8952V27.1267H97.5802V27.5167H95.8952V28.7767H97.7902V29.1667H95.4752V25.6267ZM98.904 25.3867H99.294V29.1667H98.904V25.3867ZM102.66 28.7417C102.52 28.9217 102.367 29.0484 102.2 29.1217C102.034 29.1917 101.84 29.2267 101.62 29.2267C101.437 29.2267 101.272 29.1951 101.125 29.1317C100.979 29.0651 100.854 28.9767 100.75 28.8667C100.65 28.7567 100.572 28.6267 100.515 28.4767C100.462 28.3267 100.435 28.1667 100.435 27.9967C100.435 27.8167 100.465 27.6517 100.525 27.5017C100.585 27.3484 100.669 27.2184 100.775 27.1117C100.882 27.0017 101.009 26.9167 101.155 26.8567C101.302 26.7967 101.462 26.7667 101.635 26.7667C101.799 26.7667 101.949 26.7951 102.085 26.8517C102.222 26.9051 102.339 26.9851 102.435 27.0917C102.535 27.1951 102.612 27.3234 102.665 27.4767C102.719 27.6267 102.745 27.7984 102.745 27.9917V28.1167H100.855C100.862 28.2167 100.885 28.3134 100.925 28.4067C100.969 28.4967 101.024 28.5767 101.09 28.6467C101.157 28.7134 101.235 28.7667 101.325 28.8067C101.415 28.8467 101.514 28.8667 101.62 28.8667C101.79 28.8667 101.934 28.8367 102.05 28.7767C102.167 28.7167 102.272 28.6284 102.365 28.5117L102.66 28.7417ZM102.325 27.7867C102.319 27.5867 102.254 27.4267 102.13 27.3067C102.007 27.1867 101.837 27.1267 101.62 27.1267C101.404 27.1267 101.229 27.1867 101.095 27.3067C100.962 27.4267 100.882 27.5867 100.855 27.7867H102.325ZM106.184 29.0617C106.184 29.4884 106.074 29.8117 105.854 30.0317C105.637 30.2551 105.322 30.3667 104.909 30.3667C104.679 30.3667 104.47 30.3334 104.284 30.2667C104.1 30.2001 103.925 30.0851 103.759 29.9217L104.039 29.6017C104.162 29.7351 104.292 29.8351 104.429 29.9017C104.569 29.9717 104.729 30.0067 104.909 30.0067C105.082 30.0067 105.225 29.9801 105.339 29.9267C105.455 29.8767 105.547 29.8067 105.614 29.7167C105.68 29.6301 105.727 29.5301 105.754 29.4167C105.78 29.3034 105.794 29.1851 105.794 29.0617V28.7617H105.784C105.69 28.9117 105.569 29.0217 105.419 29.0917C105.269 29.1617 105.115 29.1967 104.959 29.1967C104.775 29.1967 104.607 29.1667 104.454 29.1067C104.3 29.0467 104.169 28.9634 104.059 28.8567C103.949 28.7501 103.864 28.6234 103.804 28.4767C103.744 28.3301 103.714 28.1701 103.714 27.9967C103.714 27.8067 103.744 27.6351 103.804 27.4817C103.864 27.3284 103.947 27.2001 104.054 27.0967C104.164 26.9901 104.295 26.9084 104.449 26.8517C104.602 26.7951 104.772 26.7667 104.959 26.7667C105.039 26.7667 105.119 26.7767 105.199 26.7967C105.279 26.8134 105.355 26.8417 105.429 26.8817C105.505 26.9184 105.574 26.9667 105.634 27.0267C105.694 27.0834 105.744 27.1501 105.784 27.2267H105.794V26.8267H106.184V29.0617ZM104.134 27.9967C104.134 28.1167 104.155 28.2284 104.199 28.3317C104.242 28.4317 104.3 28.5201 104.374 28.5967C104.45 28.6701 104.539 28.7284 104.639 28.7717C104.739 28.8151 104.845 28.8367 104.959 28.8367C105.092 28.8367 105.21 28.8134 105.314 28.7667C105.417 28.7201 105.504 28.6584 105.574 28.5817C105.647 28.5017 105.702 28.4117 105.739 28.3117C105.775 28.2084 105.794 28.1001 105.794 27.9867C105.794 27.8601 105.774 27.7451 105.734 27.6417C105.694 27.5351 105.637 27.4434 105.564 27.3667C105.49 27.2901 105.402 27.2317 105.299 27.1917C105.195 27.1484 105.082 27.1267 104.959 27.1267C104.835 27.1267 104.722 27.1501 104.619 27.1967C104.519 27.2401 104.432 27.3017 104.359 27.3817C104.289 27.4584 104.234 27.5501 104.194 27.6567C104.154 27.7601 104.134 27.8734 104.134 27.9967ZM107.375 27.1267C107.495 27.0034 107.637 26.9134 107.8 26.8567C107.967 26.7967 108.135 26.7667 108.305 26.7667C108.652 26.7667 108.902 26.8484 109.055 27.0117C109.208 27.1751 109.285 27.4234 109.285 27.7567V28.7617C109.285 28.8284 109.288 28.8984 109.295 28.9717C109.302 29.0417 109.31 29.1067 109.32 29.1667H108.945C108.932 29.1134 108.923 29.0551 108.92 28.9917C108.92 28.9251 108.92 28.8667 108.92 28.8167H108.91C108.833 28.9367 108.73 29.0351 108.6 29.1117C108.473 29.1884 108.32 29.2267 108.14 29.2267C108.02 29.2267 107.907 29.2117 107.8 29.1817C107.697 29.1517 107.605 29.1084 107.525 29.0517C107.448 28.9917 107.387 28.9184 107.34 28.8317C107.293 28.7451 107.27 28.6451 107.27 28.5317C107.27 28.3384 107.32 28.1867 107.42 28.0767C107.52 27.9667 107.643 27.8851 107.79 27.8317C107.94 27.7784 108.1 27.7451 108.27 27.7317C108.443 27.7184 108.602 27.7117 108.745 27.7117H108.895V27.6417C108.895 27.4717 108.843 27.3434 108.74 27.2567C108.64 27.1701 108.498 27.1267 108.315 27.1267C108.188 27.1267 108.063 27.1484 107.94 27.1917C107.82 27.2317 107.713 27.2951 107.62 27.3817L107.375 27.1267ZM108.505 28.0417C108.255 28.0417 108.057 28.0767 107.91 28.1467C107.763 28.2167 107.69 28.3317 107.69 28.4917C107.69 28.6384 107.738 28.7434 107.835 28.8067C107.935 28.8667 108.058 28.8967 108.205 28.8967C108.318 28.8967 108.417 28.8784 108.5 28.8417C108.587 28.8017 108.658 28.7501 108.715 28.6867C108.772 28.6234 108.815 28.5501 108.845 28.4667C108.875 28.3801 108.892 28.2884 108.895 28.1917V28.0417H108.505ZM110.498 27.3817C110.498 27.2751 110.495 27.1751 110.488 27.0817C110.481 26.9884 110.478 26.9034 110.478 26.8267H110.848C110.848 26.8901 110.85 26.9534 110.853 27.0167C110.856 27.0801 110.858 27.1451 110.858 27.2117H110.868C110.895 27.1551 110.931 27.1001 110.978 27.0467C111.028 26.9934 111.086 26.9467 111.153 26.9067C111.22 26.8634 111.295 26.8301 111.378 26.8067C111.461 26.7801 111.551 26.7667 111.648 26.7667C111.801 26.7667 111.933 26.7901 112.043 26.8367C112.156 26.8834 112.25 26.9484 112.323 27.0317C112.396 27.1151 112.45 27.2167 112.483 27.3367C112.52 27.4534 112.538 27.5817 112.538 27.7217V29.1667H112.148V27.7617C112.148 27.5651 112.105 27.4101 112.018 27.2967C111.931 27.1834 111.796 27.1267 111.613 27.1267C111.486 27.1267 111.376 27.1484 111.283 27.1917C111.193 27.2351 111.118 27.2967 111.058 27.3767C111.001 27.4567 110.958 27.5517 110.928 27.6617C110.901 27.7717 110.888 27.8934 110.888 28.0267V29.1667H110.498V27.3817ZM115.441 27.4117C115.358 27.3117 115.268 27.2401 115.171 27.1967C115.075 27.1501 114.968 27.1267 114.851 27.1267C114.721 27.1267 114.606 27.1501 114.506 27.1967C114.406 27.2401 114.323 27.3017 114.256 27.3817C114.193 27.4617 114.145 27.5551 114.111 27.6617C114.078 27.7651 114.061 27.8767 114.061 27.9967C114.061 28.1167 114.08 28.2301 114.116 28.3367C114.156 28.4401 114.21 28.5317 114.276 28.6117C114.346 28.6917 114.43 28.7551 114.526 28.8017C114.623 28.8451 114.731 28.8667 114.851 28.8667C115.108 28.8667 115.306 28.7701 115.446 28.5767L115.736 28.8517C115.623 28.9817 115.49 29.0767 115.336 29.1367C115.183 29.1967 115.021 29.2267 114.851 29.2267C114.671 29.2267 114.506 29.1967 114.356 29.1367C114.206 29.0767 114.078 28.9917 113.971 28.8817C113.868 28.7717 113.786 28.6417 113.726 28.4917C113.67 28.3417 113.641 28.1767 113.641 27.9967C113.641 27.8201 113.67 27.6567 113.726 27.5067C113.786 27.3567 113.87 27.2267 113.976 27.1167C114.083 27.0067 114.21 26.9217 114.356 26.8617C114.506 26.7984 114.671 26.7667 114.851 26.7667C115.025 26.7667 115.188 26.7967 115.341 26.8567C115.498 26.9167 115.635 27.0101 115.751 27.1367L115.441 27.4117ZM118.778 28.7417C118.638 28.9217 118.485 29.0484 118.318 29.1217C118.152 29.1917 117.958 29.2267 117.738 29.2267C117.555 29.2267 117.39 29.1951 117.243 29.1317C117.097 29.0651 116.972 28.9767 116.868 28.8667C116.768 28.7567 116.69 28.6267 116.633 28.4767C116.58 28.3267 116.553 28.1667 116.553 27.9967C116.553 27.8167 116.583 27.6517 116.643 27.5017C116.703 27.3484 116.787 27.2184 116.893 27.1117C117 27.0017 117.127 26.9167 117.273 26.8567C117.42 26.7967 117.58 26.7667 117.753 26.7667C117.917 26.7667 118.067 26.7951 118.203 26.8517C118.34 26.9051 118.457 26.9851 118.553 27.0917C118.653 27.1951 118.73 27.3234 118.783 27.4767C118.837 27.6267 118.863 27.7984 118.863 27.9917V28.1167H116.973C116.98 28.2167 117.003 28.3134 117.043 28.4067C117.087 28.4967 117.142 28.5767 117.208 28.6467C117.275 28.7134 117.353 28.7667 117.443 28.8067C117.533 28.8467 117.632 28.8667 117.738 28.8667C117.908 28.8667 118.052 28.8367 118.168 28.7767C118.285 28.7167 118.39 28.6284 118.483 28.5117L118.778 28.7417ZM118.443 27.7867C118.437 27.5867 118.372 27.4267 118.248 27.3067C118.125 27.1867 117.955 27.1267 117.738 27.1267C117.522 27.1267 117.347 27.1867 117.213 27.3067C117.08 27.4267 117 27.5867 116.973 27.7867H118.443Z" fill="black"/>
</g>
<path fill-rule="evenodd" clip-rule="evenodd" d="M33.6975 2.03955C33.5448 2.24468 33.1887 2.97636 32.9062 3.6658L32.3926 4.91908L33.174 7.51926C33.6038 8.94934 33.9553 10.1471 33.9553 10.1811C33.9553 10.215 33.1043 10.2069 32.064 10.1632C26.4658 9.92724 21.5067 12.5591 19.0002 17.0965C16.4006 21.8024 17.2349 27.6077 21.0714 31.5104C22.0537 32.5095 24.3116 34.1421 24.7112 34.1421C24.9413 34.1421 26.9179 32.5229 26.9179 32.3345C26.9179 32.2663 26.5022 32.0298 25.9943 31.8093C25.4251 31.5621 24.5611 30.9311 23.7435 30.1655C21.6302 28.1866 20.7602 26.2539 20.7602 23.5379C20.7602 21.0121 21.6012 18.9985 23.4226 17.1633C25.2814 15.2905 27.7689 14.2446 30.4366 14.2143C33.9558 14.1744 36.9569 15.6404 38.87 18.3342C41.3415 21.8144 41.1297 26.1796 38.3286 29.4928C37.449 30.5335 35.5739 31.8078 34.1815 32.3113C33.2178 32.66 33.109 32.7594 32.1393 34.1805L31.115 35.6815L32.2352 35.5735C33.8969 35.4131 35.7911 34.8696 37.3812 34.097C39.3668 33.1322 41.8556 30.7883 42.8801 28.9183C45.1113 24.8457 45.0004 20.2372 42.5792 16.3989C41.7631 15.1052 40.1381 13.3905 39.0637 12.6893C38.6731 12.4345 38.354 12.1801 38.3543 12.1241C38.3547 12.0681 39.582 11.4405 41.0818 10.7292C44.0805 9.30706 44.0108 9.37234 44.7012 7.33949C45.0578 6.28967 45.0773 6.10642 44.8546 5.90461C44.5652 5.64249 34.5839 1.66675 34.2148 1.66675C34.083 1.66675 33.8502 1.83443 33.6975 2.03955ZM4.00021 11.8434C1.79998 13.9777 0 15.8356 0 15.972C0 16.3424 1.9117 18.3546 2.44232 18.5426C2.69566 18.6324 4.1633 18.7867 5.70361 18.8855C7.24409 18.9844 8.52876 19.0881 8.55849 19.1161C8.58822 19.1441 8.25641 19.8335 7.82097 20.6482C6.76625 22.6221 6.33328 24.3045 6.33486 26.4225C6.3375 30.0674 7.74831 33.1926 10.4964 35.6419C11.7786 36.7846 12.2816 37.117 13.8478 37.8573C16.4769 39.1 20.0224 39.4557 23.0236 38.7782C27.1283 37.8514 30.6977 34.9221 32.3138 31.1538C34.2224 26.704 33.2202 21.4979 29.7607 17.8878L28.8206 16.9071L27.8036 17.4178C27.2441 17.6984 26.5434 18.1652 26.2464 18.4548L25.7063 18.9814L26.6984 19.727C27.8739 20.6106 29.1588 22.3222 29.72 23.7526C30.2193 25.0244 30.3984 27.4995 30.0921 28.8895C29.5261 31.4569 27.3838 34.0832 24.9383 35.2076C20.7817 37.1188 16.5612 36.4894 13.368 33.4821C10.2592 30.5542 9.54442 26.5559 11.4498 22.7515C11.8748 21.9025 12.3822 21.2875 13.5513 20.2035C14.6641 19.1719 15.1275 18.6192 15.2183 18.2152C15.2874 17.9076 15.6126 16.9745 15.9409 16.1418C16.6854 14.2532 16.697 14.0514 16.054 14.1961C15.0781 14.4158 13.2649 15.1129 12.6071 15.5213C12.2353 15.7521 11.9063 15.9168 11.8759 15.8871C11.8455 15.8575 11.6887 14.7521 11.5274 13.4308C11.3662 12.1094 11.1551 10.787 11.0583 10.4921C10.8659 9.90603 8.72281 7.96298 8.2689 7.96298C8.12112 7.96298 6.20027 9.70919 4.00021 11.8434Z" fill="url(#paint0_linear_0_1084)"/>
<line x1="64" y1="34.3334" x2="110.667" y2="34.3334" stroke="url(#paint1_linear_0_1084)" stroke-dasharray="2 2"/>
<defs>
<filter id="filter0_i_0_1084" x="50.8" y="9.208" width="72.4297" height="15.984" filterUnits="userSpaceOnUse" color-interpolation-filters="sRGB">
<feFlood flood-opacity="0" result="BackgroundImageFix"/>
<feBlend mode="normal" in="SourceGraphic" in2="BackgroundImageFix" result="shape"/>
<feColorMatrix in="SourceAlpha" type="matrix" values="0 0 0 0 0 0 0 0 0 0 0 0 0 0 0 0 0 0 127 0" result="hardAlpha"/>
<feOffset dy="4"/>
<feGaussianBlur stdDeviation="2"/>
<feComposite in2="hardAlpha" operator="arithmetic" k2="-1" k3="1"/>
<feColorMatrix type="matrix" values="0 0 0 0 0 0 0 0 0 0 0 0 0 0 0 0 0 0 0.25 0"/>
<feBlend mode="normal" in2="shape" result="effect1_innerShadow_0_1084"/>
</filter>
<filter id="filter1_i_0_1084" x="55.44" y="25.3867" width="63.4234" height="8.98" filterUnits="userSpaceOnUse" color-interpolation-filters="sRGB">
<feFlood flood-opacity="0" result="BackgroundImageFix"/>
<feBlend mode="normal" in="SourceGraphic" in2="BackgroundImageFix" result="shape"/>
<feColorMatrix in="SourceAlpha" type="matrix" values="0 0 0 0 0 0 0 0 0 0 0 0 0 0 0 0 0 0 127 0" result="hardAlpha"/>
<feOffset dy="4"/>
<feGaussianBlur stdDeviation="2"/>
<feComposite in2="hardAlpha" operator="arithmetic" k2="-1" k3="1"/>
<feColorMatrix type="matrix" values="0 0 0 0 0 0 0 0 0 0 0 0 0 0 0 0 0 0 0.25 0"/>
<feBlend mode="normal" in2="shape" result="effect1_innerShadow_0_1084"/>
</filter>
<linearGradient id="paint0_linear_0_1084" x1="22.5" y1="1.66675" x2="22.5" y2="39.1168" gradientUnits="userSpaceOnUse">
<stop stop-color="#00AB63"/>
<stop offset="1" stop-color="#007A64"/>
</linearGradient>
<linearGradient id="paint1_linear_0_1084" x1="64" y1="35.3334" x2="110.667" y2="35.3334" gradientUnits="userSpaceOnUse">
<stop stop-color="#00AB63"/>
<stop offset="1" stop-color="#007A64"/>
</linearGradient>
</defs>
</svg>
