<svg width="21" height="17" viewBox="0 0 21 17" fill="none" xmlns="http://www.w3.org/2000/svg">
<path d="M4.57746 0.0400295C1.88846 0.36064 0.00410534 2.49934 0 5.23626C0 7.46098 1.49434 9.91247 4.43377 12.5008C5.9199 13.8106 7.989 15.2768 9.92261 16.395L10.5097 16.7313L10.9284 16.4889C14.3564 14.5339 17.3204 12.145 19.0488 9.94766C20.0669 8.65349 20.6293 7.56654 20.9044 6.35057C21.0317 5.78755 21.0317 4.64978 20.9044 4.07893C20.6581 2.98026 20.1901 2.13572 19.4429 1.42413C17.8213 -0.112455 15.3458 -0.429155 13.0263 0.603052C12.2832 0.935391 11.6263 1.35766 10.9079 1.9676L10.5097 2.30776L10.1197 1.97151C8.41185 0.505304 6.44128 -0.178925 4.57746 0.0400295Z" fill="#00AB63"/>
</svg>
