<svg width="11" height="15" viewBox="0 0 11 15" fill="none" xmlns="http://www.w3.org/2000/svg">
<path d="M4.52629 0.0417857C2.54244 0.318575 0.890295 1.63032 0.267975 3.42644C-0.275371 4.9909 -0.010016 6.45006 1.22515 8.73658C1.96435 10.1025 2.85834 11.4323 4.09982 13.0088C4.6179 13.6676 5.2339 14.4077 5.26549 14.4077C5.27813 14.4077 5.44555 14.2152 5.63825 13.9805C7.92851 11.1735 9.66596 8.36953 10.2472 6.54031C10.4683 5.84834 10.4999 5.64075 10.4999 4.96081C10.4968 4.43431 10.4873 4.29892 10.4273 4.02815C9.99133 2.11169 8.55399 0.658544 6.59542 0.159121C5.98258 0.00267458 5.14861 -0.0424542 4.52629 0.0417857ZM5.87201 2.89994C6.62701 3.11956 7.18615 3.65509 7.42308 4.38918C7.52732 4.7111 7.52732 5.21353 7.42308 5.53244C7.1672 6.3237 6.59542 6.84719 5.77725 7.03974C5.26233 7.16309 4.60842 7.07584 4.15037 6.82613C3.68284 6.56739 3.32903 6.16123 3.13002 5.64677C3.0542 5.44519 3.04472 5.39104 3.04472 4.97585C3.04472 4.55766 3.05104 4.50652 3.13317 4.28388C3.33219 3.74234 3.74918 3.29105 4.27357 3.05036C4.66212 2.87286 4.91484 2.82171 5.35078 2.83976C5.54348 2.84578 5.77409 2.87286 5.87201 2.89994Z" fill="white"/>
</svg>
