<svg width="21" height="21" viewBox="0 0 21 21" fill="none" xmlns="http://www.w3.org/2000/svg">
<path d="M0.416863 0.0983534C0.276042 0.165411 0.16808 0.263763 0.102363 0.379997C-0.00559904 0.558818 -0.00559904 0.567759 0.003789 2.1995C0.0178711 3.7776 0.0225651 3.84465 0.116445 3.96089C0.280736 4.171 0.445027 4.26041 0.707892 4.28277C0.984839 4.30065 1.18668 4.20677 1.37444 3.96536C1.46832 3.84465 1.47302 3.77313 1.4871 2.63314L1.50118 1.43057H2.73571C3.93738 1.43057 3.97493 1.4261 4.12514 1.32775C4.388 1.15787 4.47719 1.00587 4.47719 0.724227C4.47719 0.41129 4.34576 0.210117 4.05942 0.0849419C3.88574 0.00894308 3.72615 1.90735e-06 2.24753 1.90735e-06C0.656258 1.90735e-06 0.618706 1.90735e-06 0.416863 0.0983534Z" fill="#C1BFBF"/>
<path d="M16.9582 0.0849419C16.6718 0.210117 16.5404 0.41129 16.5404 0.724227C16.5404 0.996929 16.6202 1.14446 16.8643 1.31434C16.9863 1.40375 17.0661 1.40822 18.2537 1.42163L19.5164 1.43504L19.5305 2.63761C19.5446 3.76865 19.5493 3.84465 19.6432 3.96089C19.8074 4.171 19.9717 4.26041 20.2346 4.28277C20.5115 4.30065 20.7134 4.20677 20.9011 3.96536C20.995 3.84018 20.9997 3.79101 20.9997 2.1548V0.469407L20.8871 0.317409C20.6571 0.0134134 20.582 1.90735e-06 18.7701 1.90735e-06C17.2914 1.90735e-06 17.1319 0.00894308 16.9582 0.0849419Z" fill="#C1BFBF"/>
<path d="M8.51883 2.91035C8.23249 2.97293 7.80534 3.21434 7.60349 3.41999C7.50023 3.52281 7.33124 3.76422 7.22328 3.95198L7.02613 4.29174H6.07794C5.5569 4.29174 5.00301 4.31409 4.8481 4.34091C4.24258 4.44821 3.63235 4.8595 3.30847 5.37808C2.99397 5.88325 2.99866 5.83854 2.99866 10.0051C2.99866 12.37 3.01744 13.8453 3.0456 13.9972C3.16295 14.5784 3.62766 15.1909 4.16278 15.4591C4.74484 15.7542 4.37401 15.7363 10.5044 15.7363C15.0764 15.7363 16.1138 15.7229 16.3156 15.6737C17.1042 15.4725 17.7379 14.8645 17.9491 14.1045C18.0571 13.7067 18.0571 6.32136 17.9491 5.92348C17.8412 5.54349 17.6581 5.24396 17.3389 4.93997C16.7709 4.39456 16.3907 4.29174 14.959 4.29174H13.9874L13.7855 3.92963C13.4804 3.37528 13.0345 3.03105 12.4712 2.90588C12.2177 2.85223 8.77231 2.8567 8.51883 2.91035ZM11.4385 7.31381C12.6261 7.69381 13.4288 8.68179 13.4992 9.85307C13.5461 10.6891 13.2457 11.4356 12.6261 12.0257C11.4291 13.1613 9.58906 13.1613 8.39209 12.0257C7.60349 11.2747 7.32185 10.2018 7.64574 9.18696C7.96963 8.18557 8.91782 7.38534 10.0068 7.19758C10.4011 7.13052 11.0301 7.1797 11.4385 7.31381Z" fill="#C1BFBF"/>
<path d="M10.1665 8.62816C9.73462 8.73098 9.40135 8.97686 9.19011 9.35239C9.0446 9.60721 9.03052 9.66979 9.03052 10.014C9.03052 10.3404 9.04929 10.4298 9.16195 10.6488C9.41073 11.1317 9.94116 11.4446 10.5091 11.4446C11.7577 11.4446 12.4478 10.0945 11.6873 9.1378C11.3728 8.73545 10.6828 8.50746 10.1665 8.62816Z" fill="#C1BFBF"/>
<path d="M0.435895 15.8212C0.327933 15.8659 0.191806 15.9732 0.130784 16.0537L0.0181274 16.2057V17.8911C0.0181274 19.5228 0.0228215 19.5765 0.116702 19.6972C0.168336 19.7642 0.271605 19.8626 0.342015 19.9117C0.464059 20.0012 0.539164 20.0056 2.21962 20.019L3.9658 20.0325L4.12539 19.9296C4.38826 19.7553 4.47745 19.6078 4.47745 19.3216C4.47745 19.0087 4.34601 18.8075 4.05968 18.6824C3.89069 18.6064 3.73579 18.5974 2.68433 18.5974H1.50144L1.48736 17.3993C1.47327 16.2191 1.47327 16.2057 1.36062 16.0537C1.23857 15.8927 0.938155 15.7363 0.745701 15.7363C0.679984 15.7363 0.543858 15.7765 0.435895 15.8212Z" fill="#C1BFBF"/>
<path d="M19.9623 15.8212C19.8544 15.8659 19.7183 15.9732 19.6572 16.0537C19.5446 16.2057 19.5446 16.2191 19.5305 17.3993L19.5164 18.5974H18.3335C17.2821 18.5974 17.1272 18.6064 16.9582 18.6824C16.6718 18.8075 16.5404 19.0087 16.5404 19.3216C16.5404 19.5943 16.6202 19.7419 16.8643 19.9117C16.9863 20.0012 17.0614 20.0056 18.7419 20.019L20.4881 20.0325L20.6477 19.9296C20.7322 19.8715 20.8495 19.7687 20.9011 19.7016C20.995 19.5765 20.9997 19.5273 20.9997 17.8911V16.2057L20.8871 16.0537C20.765 15.8927 20.4646 15.7363 20.2722 15.7363C20.2064 15.7363 20.0703 15.7765 19.9623 15.8212Z" fill="#C1BFBF"/>
</svg>
