<svg width="21" height="14" viewBox="0 0 21 14" fill="none" xmlns="http://www.w3.org/2000/svg">
<path d="M4.22376 0.0427971C2.69381 0.374845 1.63967 1.61709 1.63967 3.08982C1.63967 4.05862 2.08266 4.92976 2.88249 5.53916L3.08348 5.6876H1.63967H0.19996L0.101518 5.78527C-0.0338393 5.91027 -0.0338393 6.08997 0.101518 6.21497L0.19996 6.31264H1.92679H3.64952V6.62515V6.93767H2.97273C2.12367 6.93767 2.00882 6.97673 2.00882 7.28534C2.00882 7.35175 2.04984 7.42988 2.11547 7.48847C2.21801 7.57832 2.24262 7.58223 2.93582 7.59395L3.64952 7.60567V7.91818V8.22679H1.92679H0.19996L0.101518 8.32445C-0.0338393 8.44946 -0.0338393 8.62916 0.101518 8.75416L0.19996 8.85182H1.92679H3.64952V9.55108V10.2464L3.42802 10.3871C3.15731 10.5589 2.94812 10.7972 2.80456 11.098C2.71432 11.2855 2.68971 11.4027 2.67331 11.7231C2.6569 12.0785 2.6651 12.1215 2.74714 12.2192L2.83327 12.3286L4.39603 12.3364L5.9588 12.3481L6.00802 12.5122C6.11876 12.8637 6.52483 13.3247 6.87348 13.4927C7.45183 13.7739 8.15322 13.7583 8.70286 13.4497C9.0392 13.2622 9.40425 12.8012 9.53141 12.395C9.55191 12.3325 9.74059 12.3286 12.7513 12.3286H15.9465L16.0121 12.5083C16.1557 12.9067 16.5208 13.3169 16.9022 13.5005C17.6487 13.8638 18.5675 13.7036 19.1213 13.1137C19.2648 12.9614 19.4535 12.6333 19.5396 12.3989C19.5601 12.3364 19.6299 12.3286 20.1959 12.3286H20.8317L20.9137 12.227C20.9999 12.1254 20.9999 12.0864 20.9999 10.262V8.40258L20.4174 7.54316C19.5683 6.2931 19.1869 5.95715 18.3912 5.76573C18.104 5.69542 17.9359 5.6876 16.5413 5.6876H15.0113V4.89069C15.0113 4.45317 14.9908 4.00002 14.9703 3.88673C14.8678 3.37109 14.4945 2.90622 13.9982 2.67183L13.7193 2.54292L10.9137 2.52339L8.1081 2.50385L8.03837 2.25775C7.8702 1.67569 7.45593 1.07019 6.95962 0.68736C6.66429 0.45688 6.07775 0.167803 5.72089 0.0779552C5.37225 -0.00798702 4.5601 -0.0275192 4.22376 0.0427971ZM5.66347 0.726424C6.48382 0.988155 7.10318 1.57412 7.36569 2.33978C7.52566 2.79684 7.52566 3.3828 7.36569 3.83986C6.95141 5.04695 5.65527 5.76964 4.36732 5.51182C3.48955 5.33603 2.73483 4.69928 2.4313 3.87111C2.33286 3.59766 2.32056 3.5 2.32056 3.08982C2.32056 2.67964 2.33286 2.58198 2.4313 2.31635C2.73483 1.49209 3.47725 0.855336 4.34681 0.667828C4.70777 0.589699 5.31892 0.617043 5.66347 0.726424ZM13.7152 3.24217C13.9285 3.34374 14.1418 3.55078 14.2361 3.75001C14.3099 3.90236 14.314 4.07034 14.314 7.02361V10.1409H9.33042H4.34681V9.49639V8.85182H4.73648C5.09743 8.85182 5.13845 8.84401 5.22869 8.75416C5.36404 8.62916 5.36404 8.44946 5.22869 8.32445C5.13845 8.2346 5.09743 8.22679 4.73648 8.22679H4.34681V7.91428V7.60176H5.5076C6.52894 7.60176 6.6807 7.59395 6.80375 7.53145C6.98013 7.44941 7.04165 7.29706 6.96372 7.14471C6.86528 6.94939 6.79965 6.93767 5.52811 6.93767H4.34681V6.62515V6.31264H6.55765C8.72747 6.31264 8.76848 6.31264 8.87513 6.2306C9.01869 6.12513 9.02279 5.89465 8.88743 5.77355C8.7972 5.69151 8.75618 5.6876 7.75946 5.67979L6.72582 5.66807L6.95552 5.49619C7.58718 5.02742 8.05068 4.20706 8.14502 3.39062L8.17373 3.14842L10.8645 3.15623C13.4322 3.16795 13.5634 3.17186 13.7152 3.24217ZM18.1368 6.35561C18.7767 6.48452 19.0556 6.72672 19.7857 7.78927L20.3436 8.60572V10.1527V11.7035H19.958H19.5725L19.5478 11.5746C19.4781 11.2113 19.1254 10.7269 18.7644 10.4964C18.0507 10.0355 17.0704 10.1253 16.4592 10.7074C16.2377 10.9183 16.0162 11.2894 15.9629 11.5395L15.9301 11.684L15.4707 11.6957L15.0113 11.7074V9.00808V6.31264H16.4674C17.378 6.31264 18.0015 6.32826 18.1368 6.35561ZM6.35666 10.7855C6.35666 10.7972 6.30334 10.8793 6.23361 10.9652C6.10646 11.1371 5.94649 11.5004 5.94649 11.6254C5.94649 11.6996 5.90957 11.7035 4.63393 11.7035C3.91203 11.7035 3.32138 11.6879 3.32138 11.6723C3.32138 11.6527 3.35009 11.5512 3.38291 11.4457C3.46084 11.1879 3.65772 10.973 3.91203 10.8597C4.11712 10.7699 4.14993 10.766 5.24099 10.766C5.85215 10.766 6.35666 10.7738 6.35666 10.7855ZM14.314 11.2348V11.7035H11.9391H9.56422L9.53551 11.5551C9.49859 11.348 9.36734 11.0824 9.22378 10.9105L9.10072 10.766H11.7094H14.314V11.2348ZM8.28038 10.9652C8.68645 11.1566 8.90794 11.5004 8.91204 11.9379C8.91615 12.2778 8.78899 12.5473 8.52238 12.7778C8.07939 13.1567 7.43952 13.1645 6.99653 12.7934C6.71351 12.5551 6.58636 12.2973 6.58636 11.9574C6.59046 11.4965 6.80375 11.1644 7.22623 10.9652C7.58308 10.7933 7.92353 10.7933 8.28038 10.9652ZM18.2312 10.9379C18.4855 11.0472 18.748 11.3168 18.8464 11.559C18.9367 11.7817 18.9162 12.2426 18.8095 12.434C18.6988 12.645 18.4978 12.8364 18.2763 12.9458C18.104 13.0317 18.0138 13.0512 17.7595 13.0512C17.3944 13.0512 17.1647 12.9614 16.9227 12.7348C16.6807 12.5043 16.5905 12.2856 16.5946 11.9379C16.5946 11.6879 16.611 11.6137 16.7135 11.434C16.8489 11.1996 17.095 10.9886 17.3329 10.9066C17.5913 10.8168 17.9892 10.8285 18.2312 10.9379Z" fill="white"/>
<path d="M4.77738 1.48817C4.67484 1.58192 4.67484 1.58974 4.67484 2.27727V2.97262L4.30568 3.45702C3.90371 3.98048 3.85449 4.12502 4.01856 4.28128C4.1252 4.38284 4.3467 4.39847 4.45744 4.31253C4.51077 4.27346 5.19576 3.38279 5.27779 3.24997C5.31471 3.19138 5.32701 2.92574 5.33111 2.37493C5.33111 1.58583 5.33111 1.58192 5.22857 1.48817C5.16704 1.42567 5.08091 1.39051 5.00297 1.39051C4.92504 1.39051 4.83891 1.42567 4.77738 1.48817Z" fill="white"/>
<path d="M16.7917 6.71496L16.6728 6.81262L16.6605 7.98065C16.6523 8.62131 16.6605 9.18383 16.6728 9.23462C16.6851 9.2815 16.7302 9.35572 16.7753 9.39869C16.8532 9.47291 16.9189 9.47682 18.1412 9.47682C19.3389 9.47682 19.4291 9.47291 19.5522 9.39869C19.7368 9.29321 19.8229 9.11352 19.7983 8.89476C19.786 8.75803 19.6711 8.53536 19.3348 7.97284C18.8303 7.13686 18.6662 6.94935 18.2601 6.76965C18.0058 6.65637 17.9484 6.64465 17.448 6.63293C16.923 6.6173 16.9107 6.6173 16.7917 6.71496ZM18.0715 7.38687C18.1617 7.43765 18.256 7.50406 18.2807 7.53141C18.3299 7.5861 19.0723 8.81272 19.0723 8.83616C19.0723 8.84397 18.6867 8.85179 18.2109 8.85179H17.3496V8.04706V7.23843L17.6285 7.26577C17.8008 7.2853 17.9648 7.32827 18.0715 7.38687Z" fill="white"/>
<path d="M7.51758 11.4887C7.25507 11.5981 7.13612 11.9692 7.28378 12.2114C7.49297 12.5434 8.05081 12.5317 8.22308 12.188C8.35844 11.9145 8.24359 11.5942 7.97697 11.4848C7.8006 11.4184 7.68575 11.4184 7.51758 11.4887Z" fill="white"/>
<path d="M17.4842 11.5082C17.3079 11.6098 17.2217 11.7465 17.2176 11.9262C17.2135 12.2387 17.4391 12.4575 17.7672 12.4575C17.9518 12.4575 18.1036 12.3676 18.2102 12.1996C18.3128 12.0434 18.3128 11.8793 18.2184 11.7074C18.0749 11.4535 17.7344 11.3598 17.4842 11.5082Z" fill="white"/>
</svg>
