<svg width="21" height="20" viewBox="0 0 21 20" fill="none" xmlns="http://www.w3.org/2000/svg">
<path d="M9.42907 0.0501041C7.81001 0.204302 6.05093 0.808586 4.68129 1.67959C3.88052 2.18802 2.94409 2.99652 2.37961 3.66331L2.12143 3.97171L2.09955 2.86316C2.07767 1.82962 2.0733 1.75044 1.98578 1.64208C1.81512 1.42121 1.6751 1.35453 1.39942 1.35453C1.12374 1.35453 0.983716 1.42121 0.813058 1.64208C0.721166 1.75461 0.721166 1.80462 0.712414 4.22176L0.699287 6.68891L0.799931 6.85561C0.904951 7.03481 1.19813 7.20984 1.39942 7.20984C1.46068 7.20984 1.60071 7.16817 1.70573 7.11399C1.89389 7.02647 1.92014 6.98897 2.27459 6.30967C2.67279 5.55118 2.97472 5.08859 3.4298 4.55099C5.33767 2.30055 8.37449 1.08781 11.3807 1.37536C15.7084 1.79211 19.1215 5.04275 19.5591 9.1644C19.9354 12.7234 17.8963 16.1991 14.505 17.7786C9.00024 20.3374 2.47587 17.1035 1.51319 11.3357C1.47381 11.1189 1.43005 10.673 1.40817 10.3438C1.36879 9.70617 1.34253 9.63115 1.07561 9.44362C0.904951 9.32276 0.493623 9.32276 0.322965 9.44362C-0.000846041 9.67283 -0.0489802 9.90204 0.0385364 10.8439C0.34922 14.1946 2.37085 17.1535 5.46019 18.7704C9.53846 20.9042 14.6407 20.2082 17.9182 17.0701C22.0271 13.136 22.0271 6.85561 17.9182 2.934C15.6909 0.808586 12.5709 -0.249954 9.42907 0.0501041Z" fill="#00AB63"/>
<path d="M9.51637 2.73397C8.34365 2.884 7.1928 3.29241 6.26075 3.88836C2.72071 6.14297 1.7449 10.6147 4.05533 14.0028C6.17323 17.1076 10.4528 18.2203 13.9185 16.5659C14.7061 16.1908 15.1962 15.8574 15.8351 15.2739C18.5043 12.8276 18.9682 8.96019 16.9465 6.00128C15.3318 3.64665 12.4132 2.35889 9.51637 2.73397ZM10.886 4.11341C10.9473 4.15508 11.0392 4.24676 11.0873 4.30928C11.1792 4.4218 11.1792 4.47181 11.1923 7.07649L11.2011 9.73118L12.4 10.8772C13.6909 12.1108 13.704 12.1275 13.634 12.4817C13.5903 12.6859 13.3233 12.9443 13.1133 12.9818C12.7239 13.0527 12.7326 13.0568 11.2711 11.6774C10.5272 10.9689 9.89707 10.3396 9.86206 10.2646C9.80955 10.1521 9.8008 9.63532 9.8008 7.33904C9.8008 5.46367 9.81393 4.50932 9.84893 4.43013C9.91019 4.27594 10.0546 4.13008 10.2165 4.05923C10.3915 3.98005 10.7372 4.00922 10.886 4.11341Z" fill="#00AB63"/>
</svg>
