<svg width="18" height="21" viewBox="0 0 18 21" fill="none" xmlns="http://www.w3.org/2000/svg">
<path d="M7.86364 0.0513725C6.74191 0.21573 5.73933 0.724455 4.95453 1.51885C4.09166 2.39151 3.64379 3.40113 3.58216 4.61033C3.49587 6.30087 4.36696 7.91705 5.87082 8.85232C6.61042 9.31409 7.32126 9.54888 8.18413 9.61541C9.7825 9.73281 11.1467 9.25539 12.2478 8.18706C13.123 7.3418 13.5668 6.41826 13.6736 5.24037C13.8216 3.66723 13.197 2.20367 11.952 1.17839C11.1467 0.520965 10.4071 0.19225 9.38393 0.0513725C8.89086 -0.0151539 8.31562 -0.0190668 7.86364 0.0513725Z" fill="#00AB63"/>
<path d="M4.13294 9.70151C2.27572 9.88934 0.985521 11.1572 0.38562 13.3956C-0.0129436 14.8866 -0.115666 16.6789 0.139086 17.6611C0.34864 18.4477 1.03483 19.246 1.82785 19.6295C2.18532 19.8017 2.69894 19.9425 3.13037 19.9895C3.38512 20.0208 5.32453 20.0286 9.03487 20.0208L14.5614 20.0091L14.9106 19.9151C16.209 19.5786 17.0965 18.749 17.4212 17.5828C17.5896 16.9763 17.5691 15.5284 17.3718 14.3857C16.9404 11.8421 15.8474 10.3159 14.1176 9.83847C13.7231 9.7289 13.0164 9.64672 12.8068 9.68585C12.6055 9.72107 12.3261 9.86195 11.6933 10.2494C11.0195 10.6642 10.925 10.7111 10.4196 10.8911C9.83611 11.0985 9.35537 11.1886 8.79245 11.1886C8.2172 11.1886 7.77344 11.1103 7.18997 10.9146C6.63938 10.7268 6.61472 10.715 5.75185 10.1946C5.29987 9.92065 4.96294 9.74455 4.83146 9.70933C4.60136 9.65455 4.60136 9.65455 4.13294 9.70151Z" fill="#00AB63"/>
</svg>
