<svg width="15" height="17" viewBox="0 0 15 17" fill="none" xmlns="http://www.w3.org/2000/svg">
<path fill-rule="evenodd" clip-rule="evenodd" d="M10.7834 0.025141C10.2154 0.135621 9.7901 0.373589 9.35725 0.822971C9.01209 1.18132 8.80625 1.52737 8.68819 1.94771L8.61645 2.20304H4.47413H0.331778L0.201699 2.31552C-0.0672328 2.54807 -0.0672328 2.92374 0.201699 3.15629L0.331778 3.26877H4.47297H8.61416L8.70344 3.56851C8.83166 3.99919 9.07388 4.38854 9.42959 4.7357C10.8558 6.12776 13.2277 5.4786 13.8111 3.53645L13.8848 3.29097L14.2972 3.26877C14.7594 3.24386 14.8848 3.17308 14.9774 2.8848C15.0373 2.69825 14.9759 2.48289 14.8195 2.33169C14.7237 2.23901 14.6562 2.22236 14.2972 2.20304L13.8848 2.18084L13.8111 1.93537C13.4764 0.821506 12.5 0.0489866 11.3689 0.00316033C11.1538 -0.00554311 10.8903 0.00435927 10.7834 0.025141ZM11.9145 1.23563C12.256 1.39682 12.5285 1.67 12.6957 2.01903C12.8244 2.28768 12.8361 2.34763 12.8361 2.73591C12.8361 3.12419 12.8244 3.18413 12.6957 3.45279C12.5292 3.8003 12.2579 4.07317 11.9145 4.23858C11.7029 4.34049 11.613 4.3567 11.2587 4.3567C10.9038 4.3567 10.8147 4.34058 10.6011 4.2377C10.2747 4.0805 9.96378 3.77521 9.80782 3.45874C9.69191 3.22357 9.68137 3.16326 9.68137 2.73591C9.68137 2.31184 9.69239 2.24754 9.80319 2.02542C10.0024 1.62613 10.2665 1.37946 10.6923 1.19482C11.0286 1.04899 11.5565 1.06662 11.9145 1.23563ZM3.10031 5.57869C2.1907 5.82354 1.45893 6.53603 1.18689 7.44163L1.11316 7.6871L0.700797 7.7093C0.341761 7.72862 0.274258 7.74527 0.178449 7.83794C-0.0591083 8.0677 -0.0591083 8.41663 0.178449 8.64639C0.274258 8.73906 0.341761 8.75571 0.700797 8.77503L1.11316 8.79723L1.18689 9.0427C1.6741 10.6646 3.45459 11.4493 4.94341 10.6983C5.57661 10.3789 6.15229 9.65896 6.33034 8.96375L6.37869 8.77503H10.5224H14.6662L14.7963 8.66255C15.0652 8.43 15.0652 8.05433 14.7963 7.82178L14.6662 7.7093H10.5238H6.3815L6.30976 7.45397C6.12083 6.78136 5.54852 6.08309 4.93952 5.78211C4.34392 5.48775 3.70183 5.41674 3.10031 5.57869ZM4.39686 6.74304C4.72137 6.89584 5.0333 7.20108 5.19013 7.51934C5.30604 7.75451 5.31658 7.81481 5.31658 8.24217C5.31658 8.66952 5.30604 8.72983 5.19013 8.965C5.03417 9.28147 4.72327 9.58676 4.39686 9.74395C4.18321 9.84684 4.09418 9.86296 3.73921 9.86296C3.38497 9.86296 3.29504 9.84675 3.08341 9.74484C2.74002 9.57943 2.4688 9.30656 2.30228 8.95905C2.17363 8.69053 2.16183 8.63036 2.16183 8.2431C2.16183 7.87911 2.17765 7.78564 2.27571 7.57076C2.47631 7.13119 2.82818 6.81125 3.27619 6.66098C3.56656 6.56365 4.09859 6.60259 4.39686 6.74304ZM8.45906 11.0849C7.54949 11.3298 6.81833 12.0416 6.54546 12.9479L6.47156 13.1934L3.38021 13.2156L0.288865 13.2378L0.178621 13.3442C-0.0591947 13.5738 -0.0591947 13.923 0.178621 14.1526L0.288865 14.2591L3.38021 14.2813L6.47156 14.3035L6.54546 14.549C6.88851 15.6883 7.95944 16.5 9.11956 16.5C10.2495 16.5 11.305 15.7018 11.657 14.581L11.7511 14.2813H13.2086H14.6662L14.7963 14.1688C14.9717 14.0171 15.0406 13.7965 14.9758 13.5945C14.9485 13.5098 14.8678 13.3899 14.7963 13.328L14.6662 13.2156H13.2086H11.7511L11.657 12.9158C11.2252 11.5409 9.79883 10.7242 8.45906 11.0849ZM9.77999 12.2578C10.3328 12.5174 10.6963 13.0863 10.7019 13.7005C10.7065 14.2004 10.5965 14.5094 10.2935 14.8477C9.93578 15.2471 9.53819 15.4136 9.01615 15.3825C8.41653 15.3469 7.8899 14.9812 7.63718 14.425C7.53696 14.2043 7.52158 14.1138 7.52222 13.7484C7.52292 13.3817 7.53822 13.2946 7.63917 13.0823C7.95386 12.4207 8.47422 12.091 9.16278 12.1172C9.43327 12.1274 9.56758 12.158 9.77999 12.2578Z" fill="#012433"/>
</svg>
