<svg width="19" height="18" viewBox="0 0 19 18" fill="none" xmlns="http://www.w3.org/2000/svg">
<path d="M7.07548 0.0078125C5.54084 0.161091 4.20637 0.650829 3.04851 1.48077C2.62462 1.78358 1.87889 2.49389 1.56097 2.89764C-0.189548 5.11081 -0.491767 8.07167 0.775983 10.5465C1.78469 12.513 3.62548 13.9336 5.87446 14.4719C7.12651 14.7747 8.64153 14.7373 9.90928 14.3785C10.3763 14.2476 11.0397 13.9859 11.4164 13.7803C11.6088 13.6756 11.6912 13.6495 11.7187 13.6794C11.7383 13.7055 11.856 13.8925 11.9856 14.0981C12.5586 15.0252 13.7361 16.6028 14.2542 17.1337C14.9293 17.8253 15.8398 18.1244 16.7504 17.9524C18.7953 17.5674 19.5999 15.2271 18.1948 13.7616C17.7395 13.2868 16.2402 12.2401 14.9646 11.5036C14.7055 11.354 14.4543 11.2082 14.4072 11.1783L14.3209 11.126L14.4543 10.9017C15.5023 9.1334 15.7025 6.9277 14.9999 4.92389C14.8586 4.52387 14.4033 3.64907 14.1403 3.27523C12.7195 1.25646 10.4274 0.0564137 7.89972 0.0040741C7.5347 -0.00340271 7.16183 0.000335693 7.07548 0.0078125ZM8.67293 2.83035C9.60706 3.00606 10.4274 3.42103 11.0985 4.0603C12.9864 5.84355 13.0335 8.68478 11.2006 10.5204C9.36764 12.3559 6.26695 12.4158 4.35944 10.6512C3.38606 9.75024 2.88367 8.61001 2.88367 7.31277C2.88759 6.19497 3.29971 5.1482 4.05329 4.33321C5.23862 3.05092 6.92634 2.50137 8.67293 2.83035Z" fill="#C1BFBF"/>
</svg>
