<svg width="21" height="20" viewBox="0 0 21 20" fill="none" xmlns="http://www.w3.org/2000/svg">
<path d="M9.53607 0.503962C9.06439 0.781305 8.63373 1.01177 8.58041 1.01177C8.53119 1.01177 8.06362 0.949274 7.54272 0.871149C7.02593 0.793024 6.55835 0.742243 6.50503 0.753962C6.43941 0.769587 6.20972 1.03521 5.79137 1.5899L5.17203 2.4024L4.16306 2.63287C3.40427 2.80474 3.13767 2.88287 3.08025 2.94146C3.03103 2.99615 2.92439 3.34381 2.76443 3.97271L2.52655 4.92193L1.67343 5.51177C1.0705 5.92584 0.812104 6.12896 0.795698 6.19537C0.779292 6.24615 0.836713 6.68756 0.918744 7.17584C1.00077 7.66412 1.0664 8.10552 1.0664 8.1563C1.0664 8.20709 0.82851 8.62505 0.533199 9.08209C0.241991 9.53912 0 9.94927 0 9.99615C0 10.043 0.237889 10.4532 0.533199 10.9102C0.824408 11.3672 1.0664 11.7852 1.0664 11.836C1.0664 11.8868 1.00077 12.3282 0.918744 12.8165C0.836713 13.3047 0.779292 13.7461 0.795698 13.7969C0.812104 13.8633 1.0705 14.0665 1.67343 14.4805L2.52655 15.0704L2.76854 16.0274C2.949 16.754 3.03103 17.0079 3.09256 17.0626C3.14998 17.1094 3.51091 17.211 4.16306 17.3594L5.14743 17.586L5.31559 17.754C5.53707 17.9805 5.72984 17.9844 5.84879 17.7618C5.90621 17.6563 5.90621 17.6329 5.82418 17.4844C5.77906 17.3946 5.68883 17.2618 5.62731 17.1954C5.52067 17.0743 5.46324 17.0547 4.5322 16.8399L3.54783 16.6133L3.30994 15.668L3.06795 14.7188L2.26815 14.168C1.82928 13.8633 1.46015 13.5938 1.44784 13.5626C1.43554 13.5313 1.49296 13.1016 1.57909 12.6055C1.70214 11.8672 1.72264 11.6836 1.68163 11.6016C1.65702 11.5469 1.42323 11.1719 1.16484 10.7735C0.906439 10.3711 0.697261 10.0235 0.697261 9.99615C0.697261 9.9688 0.906439 9.62115 1.16484 9.2188C1.42323 8.82037 1.65702 8.44537 1.68163 8.39068C1.72264 8.30865 1.70214 8.12505 1.57909 7.38677C1.49296 6.89068 1.43554 6.46099 1.44784 6.42974C1.46015 6.39849 1.82928 6.12896 2.26815 5.82427L3.06795 5.27349L3.30994 4.32427L3.54783 3.37896L4.5404 3.14849L5.53707 2.91802L6.11539 2.15631C6.43531 1.73834 6.72241 1.38677 6.75523 1.37506C6.78804 1.36334 7.24331 1.41802 7.76831 1.50006C8.88392 1.66802 8.63783 1.72271 9.72474 1.08599C10.1226 0.851618 10.4712 0.660212 10.4999 0.660212C10.5286 0.660212 10.8937 0.85943 11.3161 1.10552C11.7345 1.35162 12.1282 1.57427 12.1857 1.59771C12.2759 1.63677 12.4605 1.61724 13.2439 1.50006C13.7647 1.42193 14.2159 1.36334 14.2487 1.37506C14.2774 1.38677 14.5645 1.73834 14.8845 2.15631L15.4628 2.91802L16.4554 3.14849L17.452 3.37506L17.6899 4.32427L17.9319 5.26959L18.7317 5.82037C19.1706 6.12506 19.5397 6.39849 19.552 6.42974C19.5643 6.46099 19.5069 6.89068 19.4208 7.38677C19.2977 8.12505 19.2772 8.30865 19.3182 8.39068C19.3428 8.44537 19.5766 8.82037 19.835 9.2188C20.0934 9.62115 20.3026 9.9688 20.3026 9.99615C20.3026 10.0235 20.0934 10.3711 19.835 10.7735C19.5766 11.1719 19.3428 11.5469 19.3182 11.6016C19.2772 11.6836 19.2977 11.8672 19.4208 12.6055C19.5069 13.1016 19.5643 13.5313 19.552 13.5626C19.5397 13.5938 19.1706 13.8672 18.7317 14.1719L17.9319 14.7227L17.6899 15.668L17.452 16.6172L16.4554 16.8438L15.4628 17.0743L14.8845 17.836C14.5645 18.254 14.2774 18.6055 14.2487 18.6172C14.2159 18.629 13.7647 18.5704 13.2398 18.4922C12.4687 18.3751 12.2718 18.3594 12.1857 18.3946C12.1282 18.418 11.7345 18.6407 11.3161 18.8868C10.8937 19.1329 10.5286 19.3321 10.4999 19.3321C10.4712 19.3321 10.1226 19.1407 9.72474 18.9102C8.63783 18.2696 8.88803 18.3204 7.7478 18.4961L6.76753 18.6446L6.6773 18.5626C6.47632 18.3907 6.24254 18.4219 6.1482 18.6368C6.10308 18.7383 6.10718 18.7735 6.17691 18.8946C6.29175 19.1016 6.45992 19.254 6.57066 19.254C6.61988 19.254 7.07105 19.1915 7.56733 19.1172C8.06362 19.043 8.51479 18.9805 8.56811 18.9805C8.62553 18.9805 9.05209 19.2032 9.54017 19.4883C10.02 19.7696 10.4548 19.9961 10.504 19.9961C10.5532 19.9961 10.9839 19.7696 11.4638 19.4883C11.9396 19.2071 12.3784 18.9805 12.4318 18.9805C12.4851 18.9805 12.9526 19.043 13.4653 19.1211C13.978 19.1993 14.4415 19.2501 14.4948 19.2383C14.5604 19.2227 14.786 18.961 15.2085 18.4063L15.8278 17.5938L16.8327 17.3633C17.5915 17.1876 17.8622 17.1094 17.9196 17.0508C17.9688 16.9961 18.0755 16.6524 18.2354 16.0196L18.4733 15.0704L19.3264 14.4844C19.9417 14.0586 20.1878 13.8711 20.2042 13.8008C20.2206 13.7461 20.1631 13.3047 20.0811 12.8165C19.9991 12.3282 19.9335 11.8868 19.9335 11.836C19.9335 11.7852 20.1754 11.3672 20.4667 10.9102C20.762 10.4532 20.9999 10.043 20.9999 9.99615C20.9999 9.94927 20.762 9.53912 20.4667 9.08209C20.1754 8.62505 19.9335 8.20709 19.9335 8.1563C19.9335 8.10552 19.9991 7.66021 20.0811 7.17193C20.1631 6.68365 20.2165 6.24224 20.2042 6.18756C20.1878 6.12115 19.9253 5.92193 19.3264 5.50787L18.4733 4.92193L18.2354 3.97271C18.0755 3.3399 17.9688 2.99615 17.9196 2.94146C17.8622 2.88287 17.5915 2.80474 16.8327 2.62896L15.8278 2.39849L15.2085 1.58599C14.7737 1.01568 14.5604 0.769587 14.4907 0.753962C14.4374 0.738337 13.9739 0.793024 13.4612 0.871149C12.9485 0.949274 12.4851 1.01177 12.4318 1.01177C12.3784 1.01177 11.9396 0.781305 11.4638 0.503962C10.9675 0.214899 10.5491 -0.00385094 10.4958 5.53131e-05C10.4425 5.53131e-05 10.0118 0.226618 9.53607 0.503962Z" fill="white"/>
<path d="M9.67953 1.97662C8.14146 2.12506 6.68131 2.66803 5.43444 3.55474C4.88074 3.94928 4.75769 4.06646 4.75769 4.20709C4.75769 4.48834 5.0489 4.5899 5.29909 4.39459C6.23834 3.66412 7.02584 3.23443 8.002 2.92193C8.85102 2.6524 9.5975 2.53521 10.4998 2.53521C13.9902 2.53521 17.0131 4.68365 18.018 7.88678C18.141 8.27349 18.1943 8.51959 18.3174 9.32428C18.3584 9.57818 18.6332 9.68756 18.8178 9.5274C18.9285 9.42584 18.9367 9.19928 18.8465 8.68756C18.3748 6.07818 16.6932 3.92584 14.2117 2.76959C13.3258 2.35162 12.3783 2.0899 11.435 1.99224C11.0659 1.95318 10.0118 1.94537 9.67953 1.97662Z" fill="white"/>
<path d="M10.1184 4.07427C9.8846 4.1563 9.68773 4.31646 9.55238 4.55083L9.42523 4.76177H7.95278H6.47623L6.37779 4.85943C6.24654 4.98052 6.24244 5.14849 6.36959 5.26177C6.46392 5.34771 6.48033 5.34771 7.94868 5.34771H9.43343L9.49085 5.47662C9.57699 5.67974 9.80257 5.89849 10.0282 5.99615C10.5778 6.24224 11.2832 5.99615 11.5088 5.47662L11.5662 5.34771H13.0387C14.4619 5.34771 14.5111 5.3438 14.6178 5.26568C14.7572 5.16021 14.7613 4.98833 14.6219 4.85943L14.5234 4.76177H13.0469H11.5744L11.4473 4.55083C11.2381 4.19927 10.9264 4.02349 10.4998 4.02349C10.3768 4.02349 10.2045 4.04693 10.1184 4.07427ZM10.7418 4.66412C11.0084 4.79302 11.0535 5.17583 10.828 5.39458C10.7295 5.48443 10.6762 5.50396 10.4998 5.50396C10.3235 5.50396 10.2701 5.48443 10.1717 5.39458C9.86409 5.09771 10.061 4.61333 10.4916 4.60552C10.5655 4.60552 10.6803 4.63287 10.7418 4.66412Z" fill="white"/>
<path d="M3.8349 5.05475C3.40834 5.48444 2.73979 6.66804 2.46499 7.48444C2.13686 8.44929 2.03022 9.2071 2.06304 10.2501C2.08765 11.004 2.14507 11.4024 2.34194 12.0977C3.10893 14.8633 5.45911 17.0782 8.3876 17.7891C10.0856 18.2032 11.9682 18.1016 13.5391 17.5118C14.6999 17.0782 15.5817 16.5274 16.4717 15.6837C17.7432 14.4727 18.5389 13.0079 18.8465 11.3048C18.9368 10.793 18.9285 10.5665 18.8178 10.4649C18.6332 10.3048 18.3584 10.4141 18.3174 10.668C18.3051 10.7383 18.2764 10.9376 18.2518 11.1094C17.8498 13.8282 15.7745 16.1876 13.0059 17.0665C11.353 17.5938 9.64677 17.5938 7.99386 17.0665C5.12278 16.1563 3.06381 13.711 2.70288 10.8008C2.64135 10.3126 2.67417 9.20319 2.7644 8.72663C2.98178 7.57038 3.43295 6.56647 4.17533 5.5821C4.3599 5.336 4.39271 5.2696 4.3722 5.17194C4.33939 5.0235 4.27787 4.96491 4.1097 4.93366C3.99486 4.91022 3.95795 4.92585 3.8349 5.05475Z" fill="white"/>
<path d="M4.00723 6.91411C3.53145 7.02349 3.27306 7.36333 3.34278 7.79302C3.3838 8.07036 3.60938 8.26567 4.06055 8.42974C4.54043 8.60161 4.59375 8.62896 4.62246 8.74224C4.64297 8.81646 4.62246 8.85942 4.53633 8.92974C4.34766 9.08208 4.00723 9.0313 3.72423 8.80474C3.57247 8.67974 3.42891 8.67974 3.30177 8.80474C3.16642 8.92974 3.17462 9.06646 3.32638 9.23052C3.72833 9.66802 4.58145 9.72661 4.97519 9.33989C5.2541 9.06646 5.31972 8.75396 5.16386 8.44146C5.04902 8.2188 4.83574 8.07427 4.38457 7.92192C3.99082 7.78911 3.917 7.73442 3.95801 7.61724C4.01543 7.43755 4.33535 7.43755 4.70039 7.62114C4.91777 7.73052 5.06543 7.69536 5.15156 7.51958C5.21308 7.40239 5.21308 7.38286 5.15156 7.26958C5.02031 7.02739 4.38047 6.82817 4.00723 6.91411Z" fill="white"/>
<path d="M5.8856 6.91022C5.68463 6.98444 5.68052 7.01569 5.66822 8.13678C5.66002 8.71881 5.66822 9.25397 5.68052 9.32428C5.72974 9.57037 5.97994 9.68366 6.17681 9.55084C6.24243 9.50397 6.25884 9.43366 6.27525 9.08991L6.29575 8.68756L6.60337 8.66803C7.01352 8.64069 7.25141 8.51178 7.42368 8.22662C7.73129 7.71881 7.46469 7.09772 6.87407 6.92975C6.65669 6.86725 6.02505 6.85553 5.8856 6.91022ZM6.72231 7.50006C6.9438 7.57428 7.00532 7.82428 6.84126 7.99225C6.76743 8.06647 6.71001 8.08209 6.51314 8.08209H6.27525V7.79694C6.27525 7.63678 6.28755 7.49616 6.30396 7.48444C6.34497 7.44147 6.57876 7.45319 6.72231 7.50006Z" fill="white"/>
<path d="M8.14148 6.91412C7.95691 7.01177 7.95691 7.0274 7.95691 8.24615V9.41412L8.05945 9.50787C8.15378 9.60162 8.17839 9.60552 8.74851 9.60552C9.31042 9.60552 9.33913 9.60162 9.42526 9.51568C9.5442 9.39458 9.5401 9.23443 9.41295 9.11724C9.32272 9.0274 9.2817 9.01958 8.94128 9.01958H8.57214V8.78521V8.55083H8.87565C9.13815 8.55083 9.19967 8.53912 9.28581 8.46099C9.43346 8.33599 9.44577 8.17193 9.31042 8.04302C9.24069 7.97662 9.17507 7.9649 8.90026 7.9649H8.57214V7.71099V7.45708H8.96179C9.30631 7.45708 9.35553 7.44927 9.43346 7.37115C9.536 7.26568 9.5401 7.10162 9.43756 6.98443C9.36374 6.89458 9.33092 6.89068 8.78952 6.87896C8.42448 6.87505 8.1948 6.88677 8.14148 6.91412Z" fill="white"/>
<path d="M10.9551 6.91022C10.5204 6.99615 10.1471 7.2774 9.94206 7.67194C9.83953 7.87506 9.82312 7.94928 9.82312 8.23834C9.82312 8.51569 9.83953 8.60553 9.92976 8.78912C10.3276 9.59772 11.4022 9.86725 12.0421 9.32037C12.1979 9.18365 12.2348 9.12506 12.2348 9.0235C12.2348 8.75006 11.9149 8.63678 11.6975 8.836C11.152 9.33209 10.2169 8.72272 10.4589 8.0235C10.5204 7.84772 10.7132 7.63287 10.8854 7.54694C11.07 7.45709 11.3899 7.4649 11.6114 7.56647C11.8288 7.66803 11.9272 7.67193 12.0462 7.59381C12.1651 7.51569 12.1979 7.36334 12.1241 7.23053C12.001 7.00397 11.3653 6.83209 10.9551 6.91022Z" fill="white"/>
<path d="M12.8541 6.91412C12.6859 6.99224 12.6736 7.09771 12.6736 8.2813V9.41412L12.7761 9.50787C12.9033 9.63287 13.0796 9.63677 13.1986 9.51568C13.2888 9.42584 13.2888 9.4024 13.2888 8.25005C13.2888 7.18755 13.2806 7.06646 13.2191 6.99615C13.1289 6.89459 12.9689 6.85943 12.8541 6.91412Z" fill="white"/>
<path d="M14.7777 6.91021C14.7285 6.92974 14.6588 6.98443 14.626 7.03521C14.5932 7.08599 14.3717 7.61334 14.1297 8.21099C13.6785 9.34771 13.658 9.42974 13.8344 9.54693C14.0477 9.69146 14.2445 9.57818 14.3758 9.24224L14.4496 9.05474L14.9213 9.06646L15.3889 9.07818L15.4709 9.27349C15.5611 9.50006 15.6719 9.60553 15.8277 9.60553C15.9631 9.60553 16.119 9.46099 16.119 9.3399C16.119 9.25396 15.352 7.2774 15.2371 7.06646C15.2043 7.00787 15.1182 6.93756 15.0485 6.91412C14.8967 6.86334 14.8967 6.86334 14.7777 6.91021ZM15.0485 8.2149C15.0977 8.3399 15.1305 8.45318 15.1182 8.46099C15.11 8.46881 15.0115 8.47271 14.9008 8.4649L14.6957 8.45318L14.7983 8.18756C14.8557 8.04303 14.9131 7.93756 14.9295 7.95318C14.9459 7.96881 14.9992 8.08599 15.0485 8.2149Z" fill="white"/>
<path d="M16.6644 6.91021C16.6152 6.92974 16.5578 6.98052 16.5332 7.02349C16.5044 7.07427 16.488 7.51568 16.488 8.26958V9.43755L16.5824 9.51958C16.6685 9.59771 16.7218 9.60552 17.1812 9.60552C17.657 9.60552 17.6857 9.60162 17.78 9.50787C17.8374 9.45708 17.8826 9.36724 17.8826 9.31255C17.8826 9.25787 17.8374 9.16802 17.78 9.11724C17.6939 9.0313 17.6447 9.01958 17.3904 9.01958H17.1033V8.08208C17.1033 7.0899 17.0869 6.98833 16.9105 6.91412C16.7957 6.86333 16.7874 6.86333 16.6644 6.91021Z" fill="white"/>
<path d="M6.06596 10.5235C5.59839 10.668 5.22515 11.0469 5.1021 11.5118C4.90523 12.2618 5.43432 13.0157 6.25873 13.1563C6.87396 13.2657 7.5138 12.9415 7.7845 12.3868C7.87884 12.1993 7.89525 12.1094 7.89525 11.8321C7.89525 11.5508 7.87884 11.4649 7.7804 11.2618C7.55072 10.7891 7.09955 10.5001 6.56225 10.4766C6.36947 10.4688 6.1849 10.4883 6.06596 10.5235ZM6.80013 11.1094C7.32923 11.3243 7.46458 11.9532 7.06263 12.3516C6.76322 12.6524 6.30795 12.6758 5.97162 12.4102C5.77065 12.254 5.68862 12.0899 5.68452 11.8282C5.67631 11.2774 6.26283 10.8985 6.80013 11.1094Z" fill="white"/>
<path d="M8.45319 10.5391C8.33015 10.6563 8.32194 10.7852 8.33425 11.9376C8.34655 12.9727 8.35065 13.004 8.43679 13.086C8.54753 13.1915 8.7444 13.1993 8.85924 13.1016C8.93307 13.0391 8.94127 12.9805 8.94127 12.5665V12.1055H9.22838C9.5565 12.1055 9.69186 12.0587 9.75748 11.9219C9.819 11.7891 9.8149 11.7383 9.72057 11.6251C9.64264 11.5313 9.60572 11.5235 9.29811 11.5118L8.96178 11.5001L8.94948 11.2735L8.93717 11.0508H9.2653C9.44576 11.0508 9.63854 11.0313 9.69596 11.0079C9.90514 10.918 9.92154 10.6055 9.72467 10.5079C9.67955 10.4844 9.40065 10.4649 9.08893 10.4649C8.59264 10.4649 8.52292 10.4727 8.45319 10.5391Z" fill="white"/>
<path d="M10.3562 10.5626L10.2537 10.6563V11.8087C10.2537 12.961 10.2537 12.961 10.348 13.0665C10.4751 13.2032 10.6843 13.2149 10.7951 13.086C10.8566 13.0079 10.8689 12.9258 10.8689 12.5508V12.1055H11.1806C11.4718 12.1055 11.4964 12.0977 11.6154 11.9883C11.7138 11.8907 11.7343 11.8477 11.7138 11.7618C11.6646 11.5743 11.5538 11.5196 11.1929 11.5196H10.8689V11.2852V11.0508H11.2134C11.4964 11.0508 11.5744 11.0352 11.6646 10.9688C11.7999 10.8672 11.8122 10.6602 11.6892 10.543C11.6154 10.4727 11.5538 10.4649 11.033 10.4649C10.4751 10.4649 10.4505 10.4688 10.3562 10.5626Z" fill="white"/>
<path d="M12.2429 10.5626L12.1404 10.6563V11.7891C12.1404 12.5469 12.1568 12.9532 12.1855 13.0196C12.2634 13.1758 12.407 13.2071 13.0017 13.1915C13.5103 13.1797 13.5472 13.1758 13.621 13.086C13.7236 12.9688 13.7195 12.7891 13.6169 12.6915C13.5472 12.6251 13.4816 12.6133 13.1453 12.6133H12.7556V12.3594V12.1055H13.0796C13.3339 12.1055 13.4242 12.0899 13.498 12.0352C13.6333 11.9297 13.621 11.7305 13.4775 11.6094C13.3831 11.5313 13.3216 11.5196 13.0591 11.5196H12.7556V11.2852V11.0508H13.1247C13.4652 11.0508 13.5062 11.043 13.5964 10.9532C13.7277 10.8321 13.7318 10.6641 13.6046 10.5508C13.5144 10.4727 13.4693 10.4649 12.9238 10.4649C12.3619 10.4649 12.3373 10.4688 12.2429 10.5626Z" fill="white"/>
<path d="M14.2117 10.5626L14.1091 10.6563V11.7891C14.1091 12.5469 14.1255 12.9532 14.1542 13.0196C14.2486 13.2188 14.5767 13.2344 14.6792 13.0469C14.7039 13.004 14.7244 12.8321 14.7244 12.6641L14.7285 12.3594L14.8597 12.4962C14.9294 12.5743 15.1017 12.7579 15.2412 12.9024C15.4544 13.1368 15.5078 13.1719 15.6267 13.1719C15.7251 13.1719 15.7908 13.1446 15.8605 13.0626C15.9917 12.918 15.963 12.8126 15.7169 12.5391C15.6103 12.4258 15.4831 12.2813 15.4298 12.2227L15.3396 12.1094L15.5037 12.0235C15.9999 11.7579 16.082 11.1407 15.6718 10.7383C15.438 10.5079 15.2904 10.4649 14.7326 10.4649C14.3388 10.4649 14.3019 10.4727 14.2117 10.5626ZM15.2371 11.1485C15.3601 11.2618 15.3642 11.3243 15.2535 11.4571C15.1796 11.543 15.1386 11.5587 14.9458 11.5587H14.7244V11.3047V11.0508H14.9294C15.0976 11.0508 15.1591 11.0704 15.2371 11.1485Z" fill="white"/>
<path d="M10.028 13.9961C9.80237 14.0938 9.57679 14.3126 9.49066 14.5157L9.43324 14.6446H7.94438H6.45142L6.36529 14.7344C6.24634 14.8555 6.25044 15.0157 6.37759 15.1329L6.47603 15.2305H7.95258H9.42503L9.55218 15.4415C9.76136 15.793 10.0731 15.9688 10.4996 15.9688C10.9262 15.9688 11.2379 15.793 11.4471 15.4415L11.5742 15.2305H13.0467H14.5232L14.6217 15.1329C14.7529 15.0118 14.757 14.8438 14.6299 14.7305C14.5355 14.6446 14.5191 14.6446 13.0508 14.6446H11.566L11.5086 14.5157C11.283 13.9961 10.5776 13.7501 10.028 13.9961ZM10.8278 14.5977C11.1395 14.8946 10.9344 15.3868 10.4996 15.3868C10.0649 15.3868 9.8598 14.8946 10.1715 14.5977C10.2699 14.5079 10.3233 14.4883 10.4996 14.4883C10.676 14.4883 10.7293 14.5079 10.8278 14.5977Z" fill="white"/>
</svg>
