<svg width="15" height="12" viewBox="0 0 15 12" fill="none" xmlns="http://www.w3.org/2000/svg">
<path fill-rule="evenodd" clip-rule="evenodd" d="M3.5009 0.0352589C3.43644 0.0595117 3.37741 0.0795416 3.36967 0.0797762C3.36197 0.0800108 2.63214 0.802757 1.74784 1.68583C0.0102855 3.42101 0.000587569 3.43239 1.59569e-06 3.73345C-0.00102386 4.26871 0.492366 4.62966 0.999175 4.46441C1.1447 4.41696 1.22838 4.34188 2.07259 3.50133L2.98817 2.58972V6.96028C2.98817 11.8026 2.97628 11.5075 3.18111 11.747C3.3426 11.9359 3.48675 12 3.74994 12C4.01313 12 4.15728 11.9359 4.31877 11.747C4.5236 11.5075 4.51171 11.8026 4.51171 6.96028V2.58972L5.42729 3.50133C6.2715 4.34188 6.35518 4.41696 6.50071 4.46441C7.0076 4.62966 7.50184 4.26798 7.49953 3.73345C7.49827 3.43937 7.49481 3.43532 5.79232 1.72785C4.84454 0.777272 4.15716 0.11051 4.08773 0.0743508C3.93643 -0.00444888 3.65618 -0.0231004 3.5009 0.0352589ZM11.0451 0.0178685C10.7993 0.098633 10.6017 0.29638 10.5319 0.531489C10.4946 0.657328 10.4886 1.27802 10.4886 5.04797V9.41852L9.57305 8.50692C8.72884 7.66637 8.64517 7.59129 8.49964 7.54384C7.99274 7.37859 7.4985 7.74027 7.50082 8.2748C7.50208 8.56888 7.50553 8.57293 9.20802 10.2804C10.1137 11.1887 10.8466 11.9005 10.9135 11.9367C11.0039 11.9855 11.081 12 11.2504 12C11.4198 12 11.497 11.9855 11.5873 11.9367C11.6542 11.9005 12.3871 11.1887 13.2928 10.2804C14.9953 8.57293 14.9987 8.56888 15 8.2748C15.0023 7.74027 14.5081 7.37859 14.0012 7.54384C13.8556 7.59129 13.772 7.66637 12.9278 8.50692L12.0122 9.41852V5.04797C12.0122 1.27802 12.0062 0.657328 11.9689 0.531489C11.9162 0.35383 11.7547 0.158195 11.5924 0.0753186C11.4619 0.00868932 11.1673 -0.0222206 11.0451 0.0178685Z" fill="#012433"/>
</svg>
